# xmcd CD database file
#
# Track frame offsets:
#	300
#	21955
#	39249
#	58254
#	75919
#	87781
#	120462
#	137276
#	156560
#	177436
#	197681
#	218231
#	235722
#	263350
#
# Disc length: 3989 seconds
#
# Revision: 2
# Processed by: cddbd v1.5.1PL0 Copyright (c) Steve Scherf et al.
# Submitted via: CDex 1.51
#
DISCID=ae0f910e
DTITLE=juci - tageslicht
DYEAR=2003
DGENRE=Rhythmic Soul
TTITLE0=tageslicht
TTITLE1=halt mich
TTITLE2=mein herz
TTITLE3=wenn es dich nicht g‰be
TTITLE4=blau oder rot
TTITLE5=grenzenlos
TTITLE6=vertrau mir
TTITLE7=paradies
TTITLE8=weiﬂt du noch die zeit
TTITLE9=nie gegen den strom
TTITLE10=mein weg
TTITLE11=einer dieser tage
TTITLE12=bitte geh nicht fort
TTITLE13=die dinge
EXTD=YEAR: 2003
EXTT0=
EXTT1=
EXTT2=
EXTT3=
EXTT4=
EXTT5=
EXTT6=
EXTT7=
EXTT8=
EXTT9=
EXTT10=
EXTT11=
EXTT12=
EXTT13=
PLAYORDER=
